# xmcd
#
# Track frame offsets:
#	150
#	19412
#	38205
#	49505
#	65760
#	87865
#	106335
#	131802
#	147855
#	172080
#
# Disc length: 2533 seconds
#
# Revision: 0
# Processed by: cddbd v1.4PL0 Copyright (c) Steve Scherf et al.
# Submitted via: dBpowerAMP V4.0
#
DISCID=8e09e30a
DTITLE=Pepe Ahlqvist H.A.R.P - On The Ground
DYEAR=1990
DGENRE=Blues
TTITLE0=A Change In Me
TTITLE1=Hold On
TTITLE2=Funky Rhythm
TTITLE3=My Girl
TTITLE4=Fly Like A Bird
TTITLE5=Pack It Up
TTITLE6=I Left My Woman
TTITLE7=Before I Fall
TTITLE8=Injun Woman
TTITLE9=Ying Yang
EXTD=
EXTT0=
EXTT1=
EXTT2=
EXTT3=
EXTT4=
EXTT5=
EXTT6=
EXTT7=
EXTT8=
EXTT9=
PLAYORDER=
